<?xml version="1.0" encoding="utf-8"?>
<!-- Generator: Adobe Illustrator 22.0.0, SVG Export Plug-In . SVG Version: 6.00 Build 0)  -->
<svg version="1.1" id="图层_1" xmlns="http://www.w3.org/2000/svg" xmlns:xlink="http://www.w3.org/1999/xlink" x="0px" y="0px"
	 viewBox="0 0 200 200" style="enable-background:new 0 0 200 200;" xml:space="preserve">
<style type="text/css">
	.st0{fill:#FFFFFF;}
</style>
<path class="st0" d="M152.5,81.9H73.6V52.7c0-9.7,11.8-20.5,26.3-20.5c14.5,0,26.3,10.8,26.3,20.5v8.8h0.1c0.7,5,5,8.8,10.1,8.8
	c5.2,0,9.4-3.8,10.1-8.8h0.1v-8.8c0-22.6-21-40.9-46.8-40.9c-25.8,0-46.8,18.3-46.8,40.9v29.2h-5.9c-9.7,0-17.5,7.9-17.5,17.5v70.2
	c0,9.7,7.9,17.5,17.5,17.5h105.2c9.7,0,17.5-7.9,17.5-17.5V99.4C170.1,89.8,162.2,81.9,152.5,81.9L152.5,81.9z M108.7,146.7v8
	c0,5-3.9,9.1-8.8,9.1c-4.8,0-8.8-4.1-8.8-9.1v-8c-6.9-3.2-11.7-10.2-11.7-18.2c0-11.2,9.2-20.2,20.5-20.2c11.3,0,20.5,9,20.5,20.2
	C120.4,136.5,115.6,143.4,108.7,146.7L108.7,146.7z"/>
</svg>
